<svg width="78" height="72" viewBox="0 0 78 72" fill="none" xmlns="http://www.w3.org/2000/svg">
<path d="M38.7063 0C60.089 0 77.42 13.5079 77.42 30.1754C77.42 46.8391 60.089 60.347 38.71 60.347C36.5812 60.3481 34.4546 60.2126 32.3431 59.9415L16.0923 70.5702C14.2453 71.5471 13.5927 71.4402 14.3522 69.0476L17.6407 55.488C7.0231 50.1055 0 40.7782 0 30.1754C0 13.5116 17.3273 0 38.71 0H38.7063ZM60.4871 29.7145L65.9065 24.4647C66.2193 24.14 66.3937 23.7065 66.3932 23.2557C66.3926 22.8048 66.2171 22.3718 65.9036 22.0478C65.5901 21.7238 65.1631 21.5341 64.7125 21.5187C64.262 21.5033 63.823 21.6633 63.4881 21.9652L56.3802 28.8445V23.1596C56.3802 22.6981 56.1969 22.2555 55.8705 21.9292C55.5442 21.6029 55.1016 21.4195 54.6401 21.4195C54.1786 21.4195 53.736 21.6029 53.4096 21.9292C53.0833 22.2555 52.9 22.6981 52.9 23.1596V32.5864C52.8349 32.8554 52.8349 33.136 52.9 33.4049V38.71C52.9 39.1715 53.0833 39.6141 53.4096 39.9404C53.736 40.2668 54.1786 40.4501 54.6401 40.4501C55.1016 40.4501 55.5442 40.2668 55.8705 39.9404C56.1969 39.6141 56.3802 39.1715 56.3802 38.71V33.6851L57.9544 32.1625L63.219 39.6575C63.3504 39.8446 63.5174 40.004 63.7105 40.1266C63.9035 40.2491 64.1188 40.3325 64.3441 40.3719C64.5693 40.4112 64.8001 40.4058 65.0233 40.356C65.2465 40.3062 65.4577 40.2129 65.6448 40.0814C65.8319 39.95 65.9913 39.783 66.1139 39.5899C66.2365 39.3969 66.3198 39.1816 66.3592 38.9563C66.3985 38.7311 66.3932 38.5003 66.3433 38.2771C66.2935 38.0539 66.2002 37.8427 66.0688 37.6556L60.4871 29.7108V29.7145ZM49.582 36.8077H44.1994V23.2149C44.1788 22.7678 43.9867 22.3457 43.663 22.0366C43.3392 21.7274 42.9088 21.5549 42.4612 21.5549C42.0135 21.5549 41.5831 21.7274 41.2594 22.0366C40.9357 22.3457 40.7435 22.7678 40.7229 23.2149V38.5478C40.7229 39.5063 41.4971 40.2879 42.4593 40.2879H49.582C50.0435 40.2879 50.4861 40.1046 50.8124 39.7782C51.1388 39.4519 51.3221 39.0093 51.3221 38.5478C51.3221 38.0863 51.1388 37.6437 50.8124 37.3173C50.4861 36.991 50.0435 36.8077 49.582 36.8077ZM27.9892 32.7855L30.5551 26.4887L32.9072 32.7818L27.9892 32.7855ZM37.2906 34.5809L37.298 34.5219C37.2971 34.0836 37.1298 33.6619 36.8298 33.3422L32.9735 23.0195C32.8119 22.5276 32.504 22.0968 32.0909 21.7845C31.6779 21.4722 31.1794 21.2935 30.662 21.2721C30.1409 21.2698 29.6314 21.4262 29.2013 21.7206C28.7713 22.015 28.4411 22.4333 28.2546 22.92L22.1274 37.9432C21.9528 38.3705 21.9552 38.8496 22.1339 39.2751C22.3126 39.7007 22.6531 40.0378 23.0804 40.2123C23.5077 40.3868 23.9868 40.3845 24.4123 40.2058C24.8379 40.027 25.175 39.6866 25.3495 39.2593L26.5735 36.2621H34.2049L35.3035 39.2114C35.3785 39.4318 35.4969 39.635 35.6518 39.8089C35.8067 39.9827 35.9949 40.1237 36.2053 40.2235C36.4156 40.3233 36.6439 40.3799 36.8765 40.3898C37.1092 40.3998 37.3415 40.363 37.5596 40.2815C37.7777 40.2001 37.9773 40.0757 38.1465 39.9157C38.3157 39.7558 38.4511 39.5635 38.5446 39.3502C38.6381 39.137 38.6879 38.9072 38.691 38.6743C38.6941 38.4415 38.6504 38.2104 38.5625 37.9948L37.2906 34.5809ZM25.0435 23.2334C25.0435 22.7725 24.8607 22.3305 24.5352 22.0042C24.2096 21.678 23.768 21.4942 23.3071 21.4933H11.3439C10.8824 21.4933 10.4398 21.6766 10.1134 22.0029C9.7871 22.3293 9.60377 22.7719 9.60377 23.2334C9.60377 23.6949 9.7871 24.1375 10.1134 24.4638C10.4398 24.7901 10.8824 24.9735 11.3439 24.9735H15.6204V38.7469C15.6204 39.2084 15.8037 39.651 16.1301 39.9773C16.4564 40.3036 16.899 40.487 17.3605 40.487C17.822 40.487 18.2646 40.3036 18.591 39.9773C18.9173 39.651 19.1006 39.2084 19.1006 38.7469V24.9735H23.3034C23.7649 24.9735 24.2075 24.7901 24.5339 24.4638C24.8602 24.1375 25.0435 23.6949 25.0435 23.2334Z" fill="black"/>
</svg>
