<svg width="23" height="21" viewBox="0 0 23 21" fill="none" xmlns="http://www.w3.org/2000/svg">
<path d="M11.4989 0C17.8513 0 23 3.98696 23 8.90646C23 13.8249 17.8513 17.8118 11.5 17.8118C10.8676 17.8121 10.2358 17.7722 9.60852 17.6921L4.78071 20.8293C4.232 21.1176 4.03814 21.0861 4.26376 20.3799L5.24071 16.3777C2.08643 14.789 0 12.036 0 8.90646C0 3.98805 5.14762 0 11.5 0H11.4989ZM17.9696 8.77045L19.5796 7.22093C19.6725 7.12507 19.7243 6.99713 19.7241 6.86406C19.724 6.73099 19.6718 6.60318 19.5787 6.50755C19.4856 6.41192 19.3587 6.35593 19.2249 6.35138C19.091 6.34683 18.9606 6.39408 18.8611 6.48317L16.7495 8.51364V6.83572C16.7495 6.69951 16.695 6.56887 16.5981 6.47255C16.5011 6.37623 16.3696 6.32212 16.2325 6.32212C16.0954 6.32212 15.9639 6.37623 15.867 6.47255C15.77 6.56887 15.7156 6.69951 15.7156 6.83572V9.61811C15.6962 9.69749 15.6962 9.7803 15.7156 9.85968V11.4255C15.7156 11.5617 15.77 11.6924 15.867 11.7887C15.9639 11.885 16.0954 11.9391 16.2325 11.9391C16.3696 11.9391 16.5011 11.885 16.5981 11.7887C16.695 11.6924 16.7495 11.5617 16.7495 11.4255V9.94238L17.2171 9.49297L18.7811 11.7052C18.8202 11.7604 18.8698 11.8074 18.9272 11.8436C18.9845 11.8798 19.0485 11.9044 19.1154 11.916C19.1823 11.9276 19.2509 11.9261 19.3172 11.9114C19.3835 11.8966 19.4462 11.8691 19.5018 11.8303C19.5574 11.7915 19.6048 11.7422 19.6412 11.6852C19.6776 11.6283 19.7023 11.5647 19.714 11.4982C19.7257 11.4317 19.7241 11.3636 19.7093 11.2977C19.6945 11.2319 19.6668 11.1695 19.6278 11.1143L17.9696 8.76936V8.77045ZM14.7299 10.864H13.1308V6.85205C13.1247 6.72006 13.0676 6.5955 12.9714 6.50425C12.8753 6.41299 12.7474 6.36208 12.6144 6.36208C12.4814 6.36208 12.3535 6.41299 12.2574 6.50425C12.1612 6.5955 12.1041 6.72006 12.098 6.85205V11.3776C12.098 11.6606 12.328 11.8912 12.6139 11.8912H14.7299C14.867 11.8912 14.9984 11.8371 15.0954 11.7408C15.1923 11.6445 15.2468 11.5139 15.2468 11.3776C15.2468 11.2414 15.1923 11.1108 15.0954 11.0145C14.9984 10.9181 14.867 10.864 14.7299 10.864ZM8.31505 9.67687L9.07733 7.81832L9.77609 9.67578L8.31505 9.67687ZM11.0783 10.2068L11.0805 10.1894C11.0803 10.06 11.0305 9.93553 10.9414 9.84118L9.79581 6.79437C9.74779 6.64918 9.65631 6.52201 9.5336 6.42984C9.41089 6.33768 9.26279 6.28491 9.10909 6.27859C8.95427 6.27792 8.80291 6.32409 8.67515 6.41098C8.54739 6.49787 8.44929 6.62135 8.3939 6.76499L6.57362 11.1992C6.52177 11.3253 6.52247 11.4667 6.57556 11.5923C6.62866 11.7179 6.7298 11.8174 6.85674 11.8689C6.98368 11.9205 7.12601 11.9198 7.25243 11.867C7.37886 11.8143 7.47901 11.7138 7.53086 11.5877L7.89448 10.703H10.1616L10.488 11.5735C10.5103 11.6386 10.5454 11.6985 10.5915 11.7499C10.6375 11.8012 10.6934 11.8428 10.7559 11.8722C10.8184 11.9017 10.8862 11.9184 10.9553 11.9213C11.0244 11.9243 11.0934 11.9134 11.1582 11.8894C11.223 11.8653 11.2823 11.8286 11.3326 11.7814C11.3829 11.7342 11.4231 11.6774 11.4509 11.6145C11.4786 11.5515 11.4934 11.4837 11.4944 11.415C11.4953 11.3463 11.4823 11.2781 11.4562 11.2144L11.0783 10.2068ZM7.43995 6.85749C7.43995 6.72146 7.38564 6.59099 7.28893 6.4947C7.19222 6.39841 7.06101 6.34417 6.9241 6.34388H3.37005C3.23294 6.34388 3.10145 6.39799 3.00451 6.49431C2.90756 6.59063 2.8531 6.72127 2.8531 6.85749C2.8531 6.9937 2.90756 7.12434 3.00451 7.22066C3.10145 7.31698 3.23294 7.37109 3.37005 7.37109H4.64052V11.4364C4.64052 11.5726 4.69499 11.7033 4.79194 11.7996C4.88888 11.8959 5.02037 11.95 5.15748 11.95C5.29458 11.95 5.42607 11.8959 5.52302 11.7996C5.61996 11.7033 5.67443 11.5726 5.67443 11.4364V7.37109H6.923C7.0601 7.37109 7.19159 7.31698 7.28854 7.22066C7.38549 7.12434 7.43995 6.9937 7.43995 6.85749Z" fill="black"/>
</svg>
